<?xml version="1.0" encoding="utf-8"?>
<!-- Generator: Adobe Illustrator 18.0.0, SVG Export Plug-In . SVG Version: 6.00 Build 0)  -->
<!DOCTYPE svg PUBLIC "-//W3C//DTD SVG 1.1//EN" "http://www.w3.org/Graphics/SVG/1.1/DTD/svg11.dtd">
<svg version="1.1" id="图层_1" xmlns="http://www.w3.org/2000/svg" xmlns:xlink="http://www.w3.org/1999/xlink" x="0px" y="0px"
	 viewBox="0 79 983.4 341.9" enable-background="new 0 79 983.4 341.9" xml:space="preserve">
<path fill="#326292" d="M171,421C76.6,421,0,344.4,0,250S76.6,79,171,79s171,76.6,171,171S265.3,421,171,421z M76,281.9
	c-14.9,0-27,12.1-27,27c0,14.9,12.1,27,27,27V281.9z M256,228c0-13.2-10.7-24-24-24h-120c-13.2,0-24,10.7-24,24v41.9h168V228H256z
	 M230.9,324c-25.2,0-46.3-17.9-51.6-41.9h-17.4c-4.8,24-23.6,41.9-48.8,41.9H88c0,46.4,37.6,84,84,84s84-37.6,84-84H230.9L230.9,324
	z M268,281.9v54c14.9,0,27-12.1,27-27C295,294,282.9,281.9,268,281.9z M193,378H151c-3.3,0-6-2.7-6-6c0-3.3,2.7-6,6-6H193
	c3.3,0,6,2.7,6,6S196.3,378,193,378z"/>
<path fill="#326292" d="M497.3,239.8c4.7-1.2,8.8-2.8,12.5-4.9c3.6-2.1,6.7-4.7,9.2-7.9c2.5-3,4.5-6.6,6-10.5
	c1.3-3.2,2.1-6.6,2.6-10.4c0.5-3.8,0.7-8,0.7-12.7v-65.8h-20.3v64.1c0,7.9-0.9,14.1-2.8,18.6c-2.1,4.9-5.1,8.5-9.2,10.7
	c-4,2.2-8.8,3.3-14.3,3.3s-10.2-1.1-14.3-3.3c-4-2.2-7.1-5.8-9.2-10.7c-1.9-4.4-2.8-10.6-2.8-18.6v-64.1h-20.3v66
	c0,4.7,0.2,8.9,0.7,12.7c0.5,3.8,1.4,7.2,2.6,10.4c1.5,3.9,3.5,7.4,6,10.5c2.5,3,5.5,5.7,9,7.9c3.6,2.1,7.7,3.8,12.3,4.9
	c4.6,1.2,9.9,1.7,15.6,1.7C487.2,241.6,492.6,241,497.3,239.8z"/>
<path fill="#326292" d="M563,127.5h-21.3v112H562v-50.7c0-7.6-0.3-18.2-0.9-31.8h0.5c6.8,11.8,13.3,22.2,19.7,31l36.1,51.6h21.1
	v-112h-20.3v50.7c0,6.6,0.3,17.2,0.9,31.8h-0.5c-4.9-8.8-11.4-19-19.3-30.5L563,127.5z"/>
<path fill="#326292" d="M672.7,239.5v-112h-20.3v112H672.7z"/>
<path fill="#326292" d="M765.9,201.4c-1.7,5.1-4,9.3-6.8,12.7c-2.9,3.4-6.4,5.9-10.4,7.6c-4,1.7-8.4,2.5-13.2,2.5s-9.2-0.8-13.2-2.5
	s-7.5-4.2-10.4-7.6c-2.9-3.4-5.3-7.6-6.8-12.7c-1.7-5.1-2.5-11-2.5-17.9s0.8-12.7,2.5-17.9c1.7-5.1,4-9.3,6.8-12.7
	c2.9-3.4,6.4-6,10.4-7.6c4-1.7,8.4-2.5,13.2-2.5s9.2,0.8,13.2,2.5c4,1.7,7.5,4.2,10.4,7.6c2.9,3.4,5.3,7.7,6.8,12.7
	c1.7,5.1,2.5,11,2.5,17.9S767.6,196.2,765.9,201.4z M770.5,224.9c3-2.2,5.8-4.9,8.1-8c2.4-3,4.3-6.4,5.9-10s2.7-7.5,3.6-11.6
	c0.8-4.1,1.3-8.4,1.3-12.7c0-8.3-1.2-16-3.6-23c-2.4-7-5.9-13-10.5-18.1c-4.6-5-10.3-9-17-11.9c-6.7-2.8-14.4-4.3-22.9-4.3
	s-16.2,1.5-22.9,4.3c-6.7,2.8-12.4,6.8-17,12c-4.6,5.1-8.1,11.2-10.5,18.4c-2.4,7.1-3.6,14.9-3.6,23.4s1.2,16.3,3.5,23.4
	c2.3,7,5.8,13.1,10.3,18.2s10.1,9,16.7,11.8c6.6,2.8,14.3,4.2,22.9,4.2c2.8,0,5.8-0.1,8.8-0.2c3-0.2,5.9-0.3,8.7-0.5
	c2.8-0.2,5.6-0.4,8.3-0.5c2.7-0.2,5.9-0.2,9.3-0.2c4.6,0,9,0.1,13.1,0.2c4.1,0.2,7.7,0.4,10.6,0.6v-17.9h-1.6
	c-1.8,0-3.7,0.1-5.6,0.2c-1.9,0.1-3.8,0.3-5.7,0.5c-1.9,0.2-3.8,0.5-5.5,0.8c-1.8,0.3-3.4,0.7-4.7,1.1L770.5,224.9z"/>
<path fill="#326292" d="M864.2,239.8c4.7-1.2,8.8-2.8,12.5-4.9c3.6-2.1,6.7-4.7,9.2-7.9c2.5-3,4.5-6.6,6-10.5
	c1.3-3.2,2.1-6.6,2.6-10.4s0.7-8,0.7-12.7v-65.8H875v64.1c0,7.9-0.9,14.1-2.8,18.6c-2.1,4.9-5.1,8.5-9.2,10.7
	c-4,2.2-8.8,3.3-14.3,3.3s-10.2-1.1-14.3-3.3c-4-2.2-7.1-5.8-9.2-10.7c-1.9-4.4-2.8-10.6-2.8-18.6v-64.1H802v66
	c0,4.7,0.2,8.9,0.7,12.7c0.5,3.8,1.4,7.2,2.6,10.4c1.5,3.9,3.5,7.4,6,10.5c2.5,3,5.5,5.7,9,7.9c3.6,2.1,7.7,3.8,12.3,4.9
	c4.6,1.2,9.9,1.7,15.6,1.7C854.2,241.6,859.5,241,864.2,239.8z"/>
<path fill="#326292" d="M928.9,190.8h44.2v-17.1h-44.2v-29h51.5v-17.1h-71.7v112h74.8v-17.1h-54.5V190.8z"/>
<path fill="#326292" d="M456.7,288.2h-15.6v86.1h15.6v-37.5h39.5v37.4h15.6v-86.1h-15.6v35.5h-39.5V288.2z"/>
<path fill="#326292" d="M579.6,374.2h16.5l-33.8-86.1H548l-33.8,86.1h16.6l8.3-21.9h32.1L579.6,374.2z M555.4,308.9
	c3,8.9,5.7,16.5,8,22.6l2.9,7.7h-22.1l2.9-7.7c2.3-6.1,5-13.5,8-22.6H555.4z"/>
<path fill="#326292" d="M648.4,300.5c2.9,0.4,6.1,1.2,9.5,2.2v-13.3c-2.6-0.9-5.5-1.6-8.7-2.1c-3.3-0.5-6.6-0.7-10.3-0.7
	c-7,0-13.3,1.3-18.9,3.6s-10.2,5.6-14,9.8c-3.7,4.1-6.5,9-8.5,14.6c-2,5.7-2.9,11.7-2.9,18.3c0,6.4,0.9,12.3,2.7,17.5
	c1.9,5.3,4.6,9.9,8.3,13.7c3.7,3.8,8.3,6.7,13.8,8.8c5.5,2.1,11.9,3.2,19,3.2c3.7,0,7.2-0.2,10.7-0.7c3.5-0.5,6.6-1.2,9.7-2v-13.7
	c-2.9,0.9-6.1,1.8-9.5,2.2c-3.4,0.5-6.6,0.7-9.9,0.7c-4.5,0-8.5-0.6-12.1-2c-3.6-1.3-6.5-3.3-9-5.8c-2.4-2.6-4.3-5.8-5.7-9.7
	c-1.4-3.9-2-8.3-2-13.3c0-5.1,0.7-9.7,2.2-13.7c1.5-4,3.5-7.4,6-10c2.5-2.7,5.7-4.7,9.2-6.2c3.6-1.4,7.5-2.1,11.8-2.1
	C642.6,299.9,645.6,300.1,648.4,300.5z"/>
<path fill="#326292" d="M680.4,374.2v-38.9h0.2l34.4,38.9h20l-38.4-43.5l35.5-42.6h-19.3l-32.1,39.2h-0.2v-39.2h-15.6v86.1H680.4z"
	/>
<path fill="#326292" d="M774.8,374.2c5.8,0,10.9-0.3,15.4-1.1c4.6-0.7,8.7-1.7,12.3-3c4.3-1.7,8.1-3.7,11.2-6.3
	c3.2-2.5,5.8-5.5,7.9-8.8c2.1-3.4,3.7-7,4.6-11.1c1.1-4.1,1.6-8.4,1.6-13c0-4.9-0.6-9.5-1.8-13.7c-1.3-4.2-2.9-8-5.4-11.3
	c-2.3-3.4-5.3-6.3-8.7-8.8c-3.5-2.5-7.5-4.4-12.1-5.9c-1.6-0.5-3.3-0.9-5-1.4c-1.8-0.3-3.7-0.6-5.7-0.9c-2-0.2-4-0.4-6-0.6
	c-2.1-0.1-4.1-0.2-6.1-0.2h-22.6v86.1h20.3V374.2z M770.1,361.1v-59.8h6.8c3.7,0,7,0.2,10,0.6c2.9,0.4,5.7,1.2,8.1,2.1
	c2.6,1.1,4.9,2.3,6.9,3.9c2.1,1.6,3.8,3.5,5.3,5.7c1.5,2.2,2.5,4.7,3.4,7.6c0.7,2.8,1.2,6,1.2,9.6c0,6.7-1.2,12.3-3.5,16.6
	s-5.8,7.7-10.3,9.9c-5.1,2.5-12.3,3.8-21.4,3.8h-6.4V361.1z"/>
<path fill="#326292" d="M891.7,374.2h16.5l-33.8-86.1h-14.3l-33.8,86.1h16.6l8.3-21.9h32.1L891.7,374.2z M867.5,308.9
	c3,8.9,5.7,16.5,8,22.6l2.9,7.7h-22.1l2.9-7.7c2.3-6.1,5-13.5,8-22.6H867.5z"/>
<path fill="#326292" d="M941.6,325.3l-22.7-37.1h-17.3l32.2,51.4v34.7h15.6v-34.7l32.2-51.4h-17.3l-22.7,37.1L941.6,325.3
	L941.6,325.3z"/>
</svg>
